<svg width="320" height="80" viewBox="0 0 320 80" fill="none" xmlns="http://www.w3.org/2000/svg">
<g clip-path="url(#clip0)">
<path d="M118.57 44.29C118.57 52.0833 116.33 58.15 111.85 62.49C107.37 66.83 100.93 69 92.53 69H78.67V19.65H92.53C100.93 19.65 107.37 21.82 111.85 26.16C116.33 30.5 118.57 36.5433 118.57 44.29ZM92.39 66.13C99.95 66.13 105.667 64.2167 109.54 60.39C113.413 56.5633 115.35 51.1967 115.35 44.29C115.35 37.3833 113.39 32.0167 109.47 28.19C105.597 24.3633 99.9033 22.45 92.39 22.45H81.82V66.13H92.39ZM144.682 66.83C148.509 66.83 151.729 65.8733 154.342 63.96C156.956 62 158.542 59.34 159.102 55.98H162.392C161.692 60.04 159.779 63.3067 156.652 65.78C153.572 68.2533 149.629 69.49 144.822 69.49C141.229 69.49 138.032 68.72 135.232 67.18C132.479 65.5933 130.309 63.33 128.722 60.39C127.136 57.45 126.342 53.9733 126.342 49.96C126.342 45.9933 127.136 42.54 128.722 39.6C130.309 36.66 132.479 34.42 135.232 32.88C138.032 31.2933 141.229 30.5 144.822 30.5C148.509 30.5 151.682 31.2933 154.342 32.88C157.049 34.42 159.079 36.4733 160.432 39.04C161.832 41.56 162.532 44.2667 162.532 47.16C162.532 48.3267 162.416 49.5633 162.182 50.87H129.492C129.539 54.4167 130.262 57.4033 131.662 59.83C133.109 62.21 134.952 63.9833 137.192 65.15C139.479 66.27 141.976 66.83 144.682 66.83ZM144.822 33.09C142.069 33.09 139.549 33.6733 137.262 34.84C134.976 36.0067 133.109 37.78 131.662 40.16C130.262 42.54 129.539 45.48 129.492 48.98H159.452C159.639 45.48 159.056 42.54 157.702 40.16C156.349 37.7333 154.529 35.96 152.242 34.84C149.956 33.6733 147.482 33.09 144.822 33.09ZM182.829 30.5C186.796 30.5 189.992 31.5733 192.419 33.72C194.846 35.82 196.292 38.7133 196.759 42.4H193.749C193.469 39.6933 192.372 37.4533 190.459 35.68C188.592 33.86 186.049 32.95 182.829 32.95C179.982 32.95 177.742 33.65 176.109 35.05C174.522 36.45 173.729 38.3167 173.729 40.65C173.729 42.3767 174.196 43.7533 175.129 44.78C176.109 45.8067 177.276 46.5767 178.629 47.09C180.029 47.5567 181.966 48.0933 184.439 48.7C187.192 49.3067 189.409 49.9367 191.089 50.59C192.769 51.2433 194.192 52.27 195.359 53.67C196.526 55.07 197.109 56.9833 197.109 59.41C197.109 62.3967 196.036 64.8233 193.889 66.69C191.742 68.5567 188.919 69.49 185.419 69.49C181.219 69.49 177.766 68.44 175.059 66.34C172.399 64.1933 170.812 61.2767 170.299 57.59H173.449C173.729 60.2967 174.896 62.56 176.949 64.38C179.049 66.1533 181.896 67.04 185.489 67.04C188.196 67.04 190.296 66.34 191.789 64.94C193.329 63.4933 194.099 61.6267 194.099 59.34C194.099 57.52 193.609 56.0733 192.629 55C191.649 53.88 190.412 53.0633 188.919 52.55C187.472 52.0367 185.536 51.5 183.109 50.94C180.356 50.2867 178.162 49.6567 176.529 49.05C174.942 48.3967 173.566 47.4167 172.399 46.11C171.279 44.7567 170.719 42.9367 170.719 40.65C170.719 37.57 171.816 35.12 174.009 33.3C176.202 31.4333 179.142 30.5 182.829 30.5ZM211.537 33.86V58.29C211.537 61.3233 212.074 63.4 213.147 64.52C214.22 65.5933 216.11 66.13 218.817 66.13H222.807V69H218.467C214.967 69 212.4 68.1833 210.767 66.55C209.18 64.9167 208.387 62.1633 208.387 58.29V33.86H202.367V30.99H208.387V21.33H211.537V30.99H222.807V33.86H211.537ZM247.49 30.5C251.643 30.5 255.143 31.5967 257.99 33.79C260.836 35.9367 262.773 38.7833 263.8 42.33V30.99H266.95V69H263.8V57.66C262.773 61.2067 260.836 64.0767 257.99 66.27C255.143 68.4167 251.643 69.49 247.49 69.49C243.943 69.49 240.793 68.72 238.04 67.18C235.333 65.5933 233.21 63.33 231.67 60.39C230.13 57.4033 229.36 53.9267 229.36 49.96C229.36 45.9933 230.13 42.54 231.67 39.6C233.21 36.66 235.333 34.42 238.04 32.88C240.793 31.2933 243.943 30.5 247.49 30.5ZM248.19 33.3C243.43 33.3 239.626 34.7933 236.78 37.78C233.98 40.7667 232.58 44.8267 232.58 49.96C232.58 55.14 233.98 59.2233 236.78 62.21C239.58 65.1967 243.383 66.69 248.19 66.69C251.176 66.69 253.86 66.0133 256.24 64.66C258.62 63.26 260.463 61.3 261.77 58.78C263.123 56.2133 263.8 53.2733 263.8 49.96C263.8 46.6467 263.123 43.73 261.77 41.21C260.463 38.69 258.62 36.7533 256.24 35.4C253.86 34 251.176 33.3 248.19 33.3ZM281.361 39.39C282.341 36.4033 284.068 34.14 286.541 32.6C289.014 31.0133 292.164 30.22 295.991 30.22V33.65H294.941C291.114 33.65 287.894 34.7233 285.281 36.87C282.668 39.0167 281.361 42.4933 281.361 47.3V69H278.211V30.99H281.361V39.39Z" fill="white"/>
<mask id="path-2-outside-1" maskUnits="userSpaceOnUse" x="10" y="12.8605" width="59" height="58" fill="black">
<rect fill="white" x="10" y="12.8605" width="59" height="58"/>
<path d="M66.6648 45.7566C66.5883 45.7349 66.5125 45.713 66.4362 45.6911C67.0321 35.4623 61.6129 25.9829 52.6794 21.24C52.2721 21.0238 51.7667 21.1787 51.5505 21.5859C51.3343 21.9932 51.4891 22.4986 51.8964 22.7149C52.6609 23.1207 53.3974 23.5638 54.1047 24.0406C52.6823 25.9527 51.1763 27.8215 48.8189 27.4708C43.0606 26.617 41.5607 29.8268 40.5176 33.1878C40.3885 33.6038 40.2896 34.0265 40.2193 34.4529C38.8808 33.5317 37.6886 32.5972 36.6528 31.6544L37.2421 31.2418C38.1966 30.5733 38.3146 29.2057 37.4921 28.3831C36.1642 27.055 34.1533 26.7471 32.4887 27.6168L32.0758 27.8325C31.473 26.5427 30.6245 25.1279 29.5434 23.6069L33.2701 20.9974C38.0667 19.4981 43.3773 19.4952 48.3291 21.1746C48.7657 21.3227 49.2398 21.0887 49.3879 20.652C49.536 20.2153 49.302 19.7413 48.8655 19.5933C44.7829 18.2088 40.4661 17.894 36.3603 18.5575C36.8085 17.7292 36.6663 16.7 35.9917 16.0253L35.5322 15.5659C33.7295 13.7631 31.0001 13.3451 28.7402 14.5256L23.9465 17.0301C21.1158 14.3268 16.458 14.1813 13.8893 16.75C11.3206 19.3188 11.4661 23.9764 14.1695 26.8071L11.6651 31.6009C10.4845 33.8605 10.9025 36.5901 12.7053 38.393L13.1649 38.8524C13.6358 39.3235 14.3078 39.5589 14.9987 39.4547C12.9988 50.3053 18.0296 61.043 27.3329 66.5426C27.7313 66.7781 28.2429 66.6441 28.4765 66.2487C28.7112 65.8518 28.5796 65.3398 28.1826 65.1052C18.5443 59.4073 14.1747 48.0253 17.1622 37.5228L20.7463 32.4042C22.2674 33.4853 23.6821 34.3336 24.972 34.9365C24.9049 35.1341 23.9259 36.4538 24.3888 38.3443C22.5514 39.0568 20.4765 39.8681 20.4626 42.1846C20.4424 45.5184 24.7161 48.8584 26.9422 46.3759C28.3339 44.8241 31.4115 44.8942 31.77 46.1694C32.2183 47.7642 30.8819 49.7643 30.1037 51.0848C27.7143 55.1383 34.7816 57.5181 35.4821 59.3702C36.7287 62.6662 35.1628 65.1111 33.5435 67.4508C32.8921 67.2555 32.2475 67.0338 31.6115 66.7827C31.1828 66.6135 30.6977 66.8239 30.5284 67.2528C30.3591 67.6817 30.5696 68.1666 30.9985 68.3359C34.0311 69.5328 37.236 70.1397 40.5243 70.1397C52.979 70.1397 63.507 61.3244 65.9514 49.424C66.1269 49.3966 66.3022 49.3682 66.4767 49.3372C68.4021 48.9934 68.5437 46.2898 66.6648 45.7566ZM42.1125 33.6829C43.071 30.5936 44.0956 28.458 48.574 29.1226C51.8971 29.6154 53.8782 27.1431 55.4568 25.0207C61.6763 29.8631 65.1312 37.3974 64.7881 45.211C63.4112 44.8015 62.0676 44.3806 60.7594 43.9492C60.9012 42.2654 60.021 40.2022 59.015 38.1923C57.7663 35.6973 55.9259 35.8152 54.1467 35.9296C53.5969 35.9649 53.0287 36.0014 52.4171 35.9795C49.5636 35.8783 48.9257 38.0088 48.5833 39.1538C48.5824 39.1569 48.5815 39.1597 48.5807 39.1628C46.0588 37.9726 43.7829 36.7406 41.78 35.4794C41.8195 34.8728 41.9301 34.2702 42.1125 33.6829ZM59.1018 43.3909C55.8623 42.2753 52.8552 41.0956 50.112 39.8667C50.546 38.4633 50.7891 37.5939 52.3576 37.6483C55.2532 37.752 56.4796 36.8572 57.5219 38.9397C58.2502 40.3952 59.0301 42.1238 59.1018 43.3909ZM29.5134 16.0056C31.1232 15.1646 33.0673 15.4625 34.3516 16.7466L34.811 17.206C35.0179 17.413 34.9881 17.7561 34.7482 17.9242L28.5502 22.264C27.5276 20.9334 26.337 19.5353 25.1622 18.2788L29.5134 16.0056ZM15.0635 37.6089C14.8956 37.8486 14.5524 37.8788 14.3454 37.6716L13.8859 37.2122C12.6017 35.9281 12.304 33.9838 13.1449 32.3741L15.4182 28.0229C16.6746 29.1977 18.0728 30.3883 19.4034 31.4109L15.0635 37.6089ZM15.4668 25.7491C13.317 23.5993 13.1279 19.8728 15.0701 17.9307C17.0382 15.9627 20.7676 16.2065 22.8884 18.3275C25.6693 21.1083 29.4342 25.6501 30.8926 29.2977C31.0757 29.7559 31.6157 29.9569 32.0544 29.7277L33.262 29.0969C34.2767 28.5667 35.5021 28.7546 36.3116 29.564C36.4008 29.6532 36.3886 29.8011 36.2844 29.8741L31.4834 33.2357C31.051 33.5385 30.6781 33.9114 30.375 34.3441L27.0134 39.1449C26.941 39.2484 26.7935 39.2623 26.7032 39.1721C25.8938 38.3627 25.7061 37.1372 26.2361 36.1225L26.8671 34.9149C27.096 34.4766 26.8956 33.9363 26.437 33.7531C22.7895 32.2948 18.2477 28.5299 15.4668 25.7491ZM40.524 68.4697C38.7375 68.4697 36.978 68.2771 35.2612 67.8977C36.8724 65.5174 38.4884 62.5989 37.0438 58.7793C36.6421 57.7172 35.4555 56.8478 34.1994 55.9273C31.7309 54.1186 30.8161 53.1639 31.542 51.9324C32.4372 50.4137 34.0338 48.0523 33.3774 45.7173C32.602 42.9579 27.8762 42.8332 25.6991 45.2608C24.7115 46.3606 22.1203 44.1901 22.1323 42.1944C22.1391 41.0645 23.2298 40.5844 25.0088 39.8947C25.0389 39.8831 25.0687 39.8709 25.0987 39.8592C25.226 40.0318 25.3669 40.197 25.5226 40.3526C26.3468 41.1768 27.714 41.0555 28.3812 40.1025L29.1127 39.0578C33.0763 41.7206 40.2941 45.2297 47.3456 47.3709C46.1276 49.0592 45.1036 51.8713 46.1802 54.3264C47.3496 56.9935 45.852 62.1653 49.8202 66.6192C46.8943 67.8307 43.7354 68.4697 40.524 68.4697ZM51.4228 65.8859C47.4081 61.8032 49.1238 56.8811 47.7095 53.656C46.9591 51.9447 47.6803 49.737 48.728 48.3082C48.8479 48.1447 48.9908 48.0105 49.1655 47.8958C53.9762 49.21 59.2676 50.0652 64.1951 49.6353C62.6018 56.5643 57.9735 62.5991 51.4228 65.8859ZM66.183 47.6931C59.0694 48.9619 50.8068 46.8701 45.1279 44.892C38.8841 42.7169 33.2398 39.8018 30.0708 37.6896L31.7427 35.3019C31.9336 35.0293 32.1686 34.7943 32.4411 34.6035L35.2531 32.6345C43.1647 40.0395 57.9733 45.0255 66.2089 47.3629C66.2504 47.3746 66.3365 47.3991 66.3301 47.5289C66.3232 47.6681 66.2214 47.6862 66.183 47.6931ZM19.2712 19.6718C18.7358 20.0167 18.2737 20.3823 17.8977 20.7583C17.5218 21.1341 17.1563 21.5962 16.8111 22.1318C16.5613 22.5193 16.6731 23.036 17.0606 23.2858C17.4506 23.5373 17.9665 23.4214 18.2146 23.0364C18.4956 22.6003 18.7862 22.2312 19.0783 21.9391C19.3706 21.6469 19.7398 21.3562 20.1756 21.0754C20.5632 20.8256 20.675 20.3089 20.4252 19.9213C20.1755 19.5336 19.6586 19.4221 19.2712 19.6718Z"/>
</mask>
<path d="M66.6648 45.7566C66.5883 45.7349 66.5125 45.713 66.4362 45.6911C67.0321 35.4623 61.6129 25.9829 52.6794 21.24C52.2721 21.0238 51.7667 21.1787 51.5505 21.5859C51.3343 21.9932 51.4891 22.4986 51.8964 22.7149C52.6609 23.1207 53.3974 23.5638 54.1047 24.0406C52.6823 25.9527 51.1763 27.8215 48.8189 27.4708C43.0606 26.617 41.5607 29.8268 40.5176 33.1878C40.3885 33.6038 40.2896 34.0265 40.2193 34.4529C38.8808 33.5317 37.6886 32.5972 36.6528 31.6544L37.2421 31.2418C38.1966 30.5733 38.3146 29.2057 37.4921 28.3831C36.1642 27.055 34.1533 26.7471 32.4887 27.6168L32.0758 27.8325C31.473 26.5427 30.6245 25.1279 29.5434 23.6069L33.2701 20.9974C38.0667 19.4981 43.3773 19.4952 48.3291 21.1746C48.7657 21.3227 49.2398 21.0887 49.3879 20.652C49.536 20.2153 49.302 19.7413 48.8655 19.5933C44.7829 18.2088 40.4661 17.894 36.3603 18.5575C36.8085 17.7292 36.6663 16.7 35.9917 16.0253L35.5322 15.5659C33.7295 13.7631 31.0001 13.3451 28.7402 14.5256L23.9465 17.0301C21.1158 14.3268 16.458 14.1813 13.8893 16.75C11.3206 19.3188 11.4661 23.9764 14.1695 26.8071L11.6651 31.6009C10.4845 33.8605 10.9025 36.5901 12.7053 38.393L13.1649 38.8524C13.6358 39.3235 14.3078 39.5589 14.9987 39.4547C12.9988 50.3053 18.0296 61.043 27.3329 66.5426C27.7313 66.7781 28.2429 66.6441 28.4765 66.2487C28.7112 65.8518 28.5796 65.3398 28.1826 65.1052C18.5443 59.4073 14.1747 48.0253 17.1622 37.5228L20.7463 32.4042C22.2674 33.4853 23.6821 34.3336 24.972 34.9365C24.9049 35.1341 23.9259 36.4538 24.3888 38.3443C22.5514 39.0568 20.4765 39.8681 20.4626 42.1846C20.4424 45.5184 24.7161 48.8584 26.9422 46.3759C28.3339 44.8241 31.4115 44.8942 31.77 46.1694C32.2183 47.7642 30.8819 49.7643 30.1037 51.0848C27.7143 55.1383 34.7816 57.5181 35.4821 59.3702C36.7287 62.6662 35.1628 65.1111 33.5435 67.4508C32.8921 67.2555 32.2475 67.0338 31.6115 66.7827C31.1828 66.6135 30.6977 66.8239 30.5284 67.2528C30.3591 67.6817 30.5696 68.1666 30.9985 68.3359C34.0311 69.5328 37.236 70.1397 40.5243 70.1397C52.979 70.1397 63.507 61.3244 65.9514 49.424C66.1269 49.3966 66.3022 49.3682 66.4767 49.3372C68.4021 48.9934 68.5437 46.2898 66.6648 45.7566ZM42.1125 33.6829C43.071 30.5936 44.0956 28.458 48.574 29.1226C51.8971 29.6154 53.8782 27.1431 55.4568 25.0207C61.6763 29.8631 65.1312 37.3974 64.7881 45.211C63.4112 44.8015 62.0676 44.3806 60.7594 43.9492C60.9012 42.2654 60.021 40.2022 59.015 38.1923C57.7663 35.6973 55.9259 35.8152 54.1467 35.9296C53.5969 35.9649 53.0287 36.0014 52.4171 35.9795C49.5636 35.8783 48.9257 38.0088 48.5833 39.1538C48.5824 39.1569 48.5815 39.1597 48.5807 39.1628C46.0588 37.9726 43.7829 36.7406 41.78 35.4794C41.8195 34.8728 41.9301 34.2702 42.1125 33.6829ZM59.1018 43.3909C55.8623 42.2753 52.8552 41.0956 50.112 39.8667C50.546 38.4633 50.7891 37.5939 52.3576 37.6483C55.2532 37.752 56.4796 36.8572 57.5219 38.9397C58.2502 40.3952 59.0301 42.1238 59.1018 43.3909ZM29.5134 16.0056C31.1232 15.1646 33.0673 15.4625 34.3516 16.7466L34.811 17.206C35.0179 17.413 34.9881 17.7561 34.7482 17.9242L28.5502 22.264C27.5276 20.9334 26.337 19.5353 25.1622 18.2788L29.5134 16.0056ZM15.0635 37.6089C14.8956 37.8486 14.5524 37.8788 14.3454 37.6716L13.8859 37.2122C12.6017 35.9281 12.304 33.9838 13.1449 32.3741L15.4182 28.0229C16.6746 29.1977 18.0728 30.3883 19.4034 31.4109L15.0635 37.6089ZM15.4668 25.7491C13.317 23.5993 13.1279 19.8728 15.0701 17.9307C17.0382 15.9627 20.7676 16.2065 22.8884 18.3275C25.6693 21.1083 29.4342 25.6501 30.8926 29.2977C31.0757 29.7559 31.6157 29.9569 32.0544 29.7277L33.262 29.0969C34.2767 28.5667 35.5021 28.7546 36.3116 29.564C36.4008 29.6532 36.3886 29.8011 36.2844 29.8741L31.4834 33.2357C31.051 33.5385 30.6781 33.9114 30.375 34.3441L27.0134 39.1449C26.941 39.2484 26.7935 39.2623 26.7032 39.1721C25.8938 38.3627 25.7061 37.1372 26.2361 36.1225L26.8671 34.9149C27.096 34.4766 26.8956 33.9363 26.437 33.7531C22.7895 32.2948 18.2477 28.5299 15.4668 25.7491ZM40.524 68.4697C38.7375 68.4697 36.978 68.2771 35.2612 67.8977C36.8724 65.5174 38.4884 62.5989 37.0438 58.7793C36.6421 57.7172 35.4555 56.8478 34.1994 55.9273C31.7309 54.1186 30.8161 53.1639 31.542 51.9324C32.4372 50.4137 34.0338 48.0523 33.3774 45.7173C32.602 42.9579 27.8762 42.8332 25.6991 45.2608C24.7115 46.3606 22.1203 44.1901 22.1323 42.1944C22.1391 41.0645 23.2298 40.5844 25.0088 39.8947C25.0389 39.8831 25.0687 39.8709 25.0987 39.8592C25.226 40.0318 25.3669 40.197 25.5226 40.3526C26.3468 41.1768 27.714 41.0555 28.3812 40.1025L29.1127 39.0578C33.0763 41.7206 40.2941 45.2297 47.3456 47.3709C46.1276 49.0592 45.1036 51.8713 46.1802 54.3264C47.3496 56.9935 45.852 62.1653 49.8202 66.6192C46.8943 67.8307 43.7354 68.4697 40.524 68.4697ZM51.4228 65.8859C47.4081 61.8032 49.1238 56.8811 47.7095 53.656C46.9591 51.9447 47.6803 49.737 48.728 48.3082C48.8479 48.1447 48.9908 48.0105 49.1655 47.8958C53.9762 49.21 59.2676 50.0652 64.1951 49.6353C62.6018 56.5643 57.9735 62.5991 51.4228 65.8859ZM66.183 47.6931C59.0694 48.9619 50.8068 46.8701 45.1279 44.892C38.8841 42.7169 33.2398 39.8018 30.0708 37.6896L31.7427 35.3019C31.9336 35.0293 32.1686 34.7943 32.4411 34.6035L35.2531 32.6345C43.1647 40.0395 57.9733 45.0255 66.2089 47.3629C66.2504 47.3746 66.3365 47.3991 66.3301 47.5289C66.3232 47.6681 66.2214 47.6862 66.183 47.6931ZM19.2712 19.6718C18.7358 20.0167 18.2737 20.3823 17.8977 20.7583C17.5218 21.1341 17.1563 21.5962 16.8111 22.1318C16.5613 22.5193 16.6731 23.036 17.0606 23.2858C17.4506 23.5373 17.9665 23.4214 18.2146 23.0364C18.4956 22.6003 18.7862 22.2312 19.0783 21.9391C19.3706 21.6469 19.7398 21.3562 20.1756 21.0754C20.5632 20.8256 20.675 20.3089 20.4252 19.9213C20.1755 19.5336 19.6586 19.4221 19.2712 19.6718Z" fill="white"/>
<path d="M66.6648 45.7566C66.5883 45.7349 66.5125 45.713 66.4362 45.6911C67.0321 35.4623 61.6129 25.9829 52.6794 21.24C52.2721 21.0238 51.7667 21.1787 51.5505 21.5859C51.3343 21.9932 51.4891 22.4986 51.8964 22.7149C52.6609 23.1207 53.3974 23.5638 54.1047 24.0406C52.6823 25.9527 51.1763 27.8215 48.8189 27.4708C43.0606 26.617 41.5607 29.8268 40.5176 33.1878C40.3885 33.6038 40.2896 34.0265 40.2193 34.4529C38.8808 33.5317 37.6886 32.5972 36.6528 31.6544L37.2421 31.2418C38.1966 30.5733 38.3146 29.2057 37.4921 28.3831C36.1642 27.055 34.1533 26.7471 32.4887 27.6168L32.0758 27.8325C31.473 26.5427 30.6245 25.1279 29.5434 23.6069L33.2701 20.9974C38.0667 19.4981 43.3773 19.4952 48.3291 21.1746C48.7657 21.3227 49.2398 21.0887 49.3879 20.652C49.536 20.2153 49.302 19.7413 48.8655 19.5933C44.7829 18.2088 40.4661 17.894 36.3603 18.5575C36.8085 17.7292 36.6663 16.7 35.9917 16.0253L35.5322 15.5659C33.7295 13.7631 31.0001 13.3451 28.7402 14.5256L23.9465 17.0301C21.1158 14.3268 16.458 14.1813 13.8893 16.75C11.3206 19.3188 11.4661 23.9764 14.1695 26.8071L11.6651 31.6009C10.4845 33.8605 10.9025 36.5901 12.7053 38.393L13.1649 38.8524C13.6358 39.3235 14.3078 39.5589 14.9987 39.4547C12.9988 50.3053 18.0296 61.043 27.3329 66.5426C27.7313 66.7781 28.2429 66.6441 28.4765 66.2487C28.7112 65.8518 28.5796 65.3398 28.1826 65.1052C18.5443 59.4073 14.1747 48.0253 17.1622 37.5228L20.7463 32.4042C22.2674 33.4853 23.6821 34.3336 24.972 34.9365C24.9049 35.1341 23.9259 36.4538 24.3888 38.3443C22.5514 39.0568 20.4765 39.8681 20.4626 42.1846C20.4424 45.5184 24.7161 48.8584 26.9422 46.3759C28.3339 44.8241 31.4115 44.8942 31.77 46.1694C32.2183 47.7642 30.8819 49.7643 30.1037 51.0848C27.7143 55.1383 34.7816 57.5181 35.4821 59.3702C36.7287 62.6662 35.1628 65.1111 33.5435 67.4508C32.8921 67.2555 32.2475 67.0338 31.6115 66.7827C31.1828 66.6135 30.6977 66.8239 30.5284 67.2528C30.3591 67.6817 30.5696 68.1666 30.9985 68.3359C34.0311 69.5328 37.236 70.1397 40.5243 70.1397C52.979 70.1397 63.507 61.3244 65.9514 49.424C66.1269 49.3966 66.3022 49.3682 66.4767 49.3372C68.4021 48.9934 68.5437 46.2898 66.6648 45.7566ZM42.1125 33.6829C43.071 30.5936 44.0956 28.458 48.574 29.1226C51.8971 29.6154 53.8782 27.1431 55.4568 25.0207C61.6763 29.8631 65.1312 37.3974 64.7881 45.211C63.4112 44.8015 62.0676 44.3806 60.7594 43.9492C60.9012 42.2654 60.021 40.2022 59.015 38.1923C57.7663 35.6973 55.9259 35.8152 54.1467 35.9296C53.5969 35.9649 53.0287 36.0014 52.4171 35.9795C49.5636 35.8783 48.9257 38.0088 48.5833 39.1538C48.5824 39.1569 48.5815 39.1597 48.5807 39.1628C46.0588 37.9726 43.7829 36.7406 41.78 35.4794C41.8195 34.8728 41.9301 34.2702 42.1125 33.6829ZM59.1018 43.3909C55.8623 42.2753 52.8552 41.0956 50.112 39.8667C50.546 38.4633 50.7891 37.5939 52.3576 37.6483C55.2532 37.752 56.4796 36.8572 57.5219 38.9397C58.2502 40.3952 59.0301 42.1238 59.1018 43.3909ZM29.5134 16.0056C31.1232 15.1646 33.0673 15.4625 34.3516 16.7466L34.811 17.206C35.0179 17.413 34.9881 17.7561 34.7482 17.9242L28.5502 22.264C27.5276 20.9334 26.337 19.5353 25.1622 18.2788L29.5134 16.0056ZM15.0635 37.6089C14.8956 37.8486 14.5524 37.8788 14.3454 37.6716L13.8859 37.2122C12.6017 35.9281 12.304 33.9838 13.1449 32.3741L15.4182 28.0229C16.6746 29.1977 18.0728 30.3883 19.4034 31.4109L15.0635 37.6089ZM15.4668 25.7491C13.317 23.5993 13.1279 19.8728 15.0701 17.9307C17.0382 15.9627 20.7676 16.2065 22.8884 18.3275C25.6693 21.1083 29.4342 25.6501 30.8926 29.2977C31.0757 29.7559 31.6157 29.9569 32.0544 29.7277L33.262 29.0969C34.2767 28.5667 35.5021 28.7546 36.3116 29.564C36.4008 29.6532 36.3886 29.8011 36.2844 29.8741L31.4834 33.2357C31.051 33.5385 30.6781 33.9114 30.375 34.3441L27.0134 39.1449C26.941 39.2484 26.7935 39.2623 26.7032 39.1721C25.8938 38.3627 25.7061 37.1372 26.2361 36.1225L26.8671 34.9149C27.096 34.4766 26.8956 33.9363 26.437 33.7531C22.7895 32.2948 18.2477 28.5299 15.4668 25.7491ZM40.524 68.4697C38.7375 68.4697 36.978 68.2771 35.2612 67.8977C36.8724 65.5174 38.4884 62.5989 37.0438 58.7793C36.6421 57.7172 35.4555 56.8478 34.1994 55.9273C31.7309 54.1186 30.8161 53.1639 31.542 51.9324C32.4372 50.4137 34.0338 48.0523 33.3774 45.7173C32.602 42.9579 27.8762 42.8332 25.6991 45.2608C24.7115 46.3606 22.1203 44.1901 22.1323 42.1944C22.1391 41.0645 23.2298 40.5844 25.0088 39.8947C25.0389 39.8831 25.0687 39.8709 25.0987 39.8592C25.226 40.0318 25.3669 40.197 25.5226 40.3526C26.3468 41.1768 27.714 41.0555 28.3812 40.1025L29.1127 39.0578C33.0763 41.7206 40.2941 45.2297 47.3456 47.3709C46.1276 49.0592 45.1036 51.8713 46.1802 54.3264C47.3496 56.9935 45.852 62.1653 49.8202 66.6192C46.8943 67.8307 43.7354 68.4697 40.524 68.4697ZM51.4228 65.8859C47.4081 61.8032 49.1238 56.8811 47.7095 53.656C46.9591 51.9447 47.6803 49.737 48.728 48.3082C48.8479 48.1447 48.9908 48.0105 49.1655 47.8958C53.9762 49.21 59.2676 50.0652 64.1951 49.6353C62.6018 56.5643 57.9735 62.5991 51.4228 65.8859ZM66.183 47.6931C59.0694 48.9619 50.8068 46.8701 45.1279 44.892C38.8841 42.7169 33.2398 39.8018 30.0708 37.6896L31.7427 35.3019C31.9336 35.0293 32.1686 34.7943 32.4411 34.6035L35.2531 32.6345C43.1647 40.0395 57.9733 45.0255 66.2089 47.3629C66.2504 47.3746 66.3365 47.3991 66.3301 47.5289C66.3232 47.6681 66.2214 47.6862 66.183 47.6931ZM19.2712 19.6718C18.7358 20.0167 18.2737 20.3823 17.8977 20.7583C17.5218 21.1341 17.1563 21.5962 16.8111 22.1318C16.5613 22.5193 16.6731 23.036 17.0606 23.2858C17.4506 23.5373 17.9665 23.4214 18.2146 23.0364C18.4956 22.6003 18.7862 22.2312 19.0783 21.9391C19.3706 21.6469 19.7398 21.3562 20.1756 21.0754C20.5632 20.8256 20.675 20.3089 20.4252 19.9213C20.1755 19.5336 19.6586 19.4221 19.2712 19.6718Z" stroke="white" mask="url(#path-2-outside-1)"/>
</g>
<defs>
<clipPath id="clip0">
<rect width="320" height="80" fill="white"/>
</clipPath>
</defs>
</svg>
